<?xml version="1.0" encoding="UTF-8" standalone="no"?>
<!-- Created with Inkscape (http://www.inkscape.org/) -->

<svg
   version="1.1"
   id="svg1"
   width="200"
   height="200"
   viewBox="0 0 200 200"
   xmlns="http://www.w3.org/2000/svg"
   xmlns:svg="http://www.w3.org/2000/svg">
  <defs
     id="defs1" />
  <path
     style="fill:#000000;stroke-width:1.05296"
     d="m 45.307136,173.56242 c 12.070433,-2.47854 23.285876,-8.74099 34.455348,-19.23908 10.106634,-9.49915 13.615402,-14.66593 16.468579,-24.25059 l 1.37016,-4.60278 0.0711,3.57994 c 0.0391,1.96897 -0.35371,5.30598 -0.87288,7.41559 -0.51916,2.1096 -0.80701,3.83565 -0.63965,3.83565 0.16736,0 2.25881,-3.10688 4.647667,-6.90417 8.38376,-13.3267 13.67112,-29.10441 13.04907,-38.938973 l -0.34415,-5.440973 -4.22212,5.952392 c -2.32217,3.273817 -3.94475,5.200984 -3.60573,4.282591 7.28348,-19.730783 7.66452,-31.576949 1.42908,-44.42908 -4.4188,-9.107774 -18.79023,-17.128649 -30.64444,-17.103039 -10.061244,0.02173 -20.299541,7.794573 -26.467621,20.094016 -4.014566,8.00523 -4.830329,12.179474 -3.134986,16.041646 1.941666,4.42332 3.207004,4.683664 2.489632,0.512242 -1.651537,-9.603456 7.704194,-15.557097 14.447568,-9.193898 2.050457,1.934856 2.592302,3.255698 2.097979,5.114198 -0.598779,2.251224 -0.328714,2.505627 2.659886,2.505627 3.710328,0 8.579686,-2.071101 10.797209,-4.592414 0.802403,-0.91233 2.075344,-3.819416 2.828755,-6.460191 1.361359,-4.77168 1.369626,-4.741243 1.334952,4.915567 -0.01919,5.344337 -0.425422,10.867671 -0.902742,12.274076 -0.851593,2.509189 -0.869893,2.499607 -0.976757,-0.51142 -0.09717,-2.73767 -0.451865,-2.384436 -3.289768,3.276138 -4.32668,8.630137 -7.396076,12.332614 -12.629935,15.23494 -4.560068,2.528692 -6.401711,3.078965 -5.452093,1.629082 0.298288,-0.455434 -2.372525,-0.629103 -5.935141,-0.385935 -7.095914,0.484335 -14.548683,-1.549419 -17.693255,-4.828237 -1.731012,-1.80491 -1.632891,-1.835137 2.542971,-0.783373 2.3889,0.601685 4.651974,0.802847 5.029055,0.447027 0.377079,-0.355822 -0.52552,-2.173082 -2.005776,-4.038357 -3.001557,-3.782268 -5.50659,-8.253201 -6.749971,-12.047214 -0.804376,-2.454443 -0.757511,-2.444231 1.83505,0.399877 l 2.660506,2.918647 0.158916,-5.699492 C 40.456695,62.236408 47.359093,49.603826 59.454277,39.145622 77.588671,23.465563 106.96898,22.95508 122.18395,38.055694 c 2.94376,2.921641 3.54762,3.920471 1.88083,3.11108 -2.01861,-0.980233 -2.57184,-0.904725 -3.11252,0.424803 -1.47904,3.637008 6.32411,16.882396 9.94579,16.882396 0.81164,0 1.91596,-0.742338 2.45405,-1.649639 1.2903,-2.175663 3.46518,5.686407 3.46518,12.526465 0,4.3249 -0.16004,4.650223 -1.46149,2.97074 -2.00876,-2.592282 -3.47248,-1.406667 -4.90888,3.976256 -2.34107,8.773021 -1.02777,14.907048 3.19159,14.907048 1.23177,0 2.58718,-0.991836 3.145,-2.30139 1.71968,-4.037122 1.18889,-0.456928 -1.0753,7.253057 -2.08085,7.08567 -9.05716,21.64216 -10.37215,21.64216 -0.33797,0 -0.3101,-1.30772 0.0619,-2.90604 0.99223,-4.26292 -1.32021,-16.272003 -4.26584,-22.153528 l -2.56133,-5.114198 -0.0903,6.478039 c -0.1727,12.382727 -6.25633,29.864097 -14.65773,42.119157 -2.7825,4.0588 -4.807787,7.61678 -4.500637,7.9066 0.752317,0.70992 10.498307,-5.25429 13.325977,-8.15503 1.24438,-1.27654 3.58973,-4.16209 5.21185,-6.41234 4.03744,-5.60082 2.58322,-0.87083 -2.01105,6.5411 -5.20315,8.39425 -12.85477,15.74833 -22.845491,21.95716 -18.60767,11.5639 -34.201517,17.10285 -47.682301,16.93679 l -6.601295,-0.0813 z m 52.573517,-50.22336 c 0.052,-1.19156 0.30886,-1.43392 0.65488,-0.61797 0.31312,0.73836 0.27462,1.62056 -0.0856,1.96044 -0.36019,0.33988 -0.61638,-0.26424 -0.56932,-1.34247 z m 47.825357,-29.669811 -2.49275,-3.613621 2.3842,1.204047 c 1.39167,0.702814 4.45996,0.9726 7.37053,0.648072 l 4.98632,-0.555973 -4.54045,1.525163 c -2.49724,0.83884 -4.69224,2.173336 -4.87778,2.965548 -0.20427,0.872226 -1.32058,0.01499 -2.83007,-2.173236 z m 14.74978,-4.605763 c 0.77965,-0.951607 1.83522,-3.045415 2.34572,-4.652907 0.76998,-2.424526 0.94407,-2.540155 1.02136,-0.678362 0.0513,1.234394 -1.00434,3.328202 -2.34572,4.652908 -1.34139,1.324705 -1.801,1.629968 -1.02136,0.678361 z m -13.86067,-0.023 c -6.78793,-2.55561 -8.54578,-8.505637 -4.40574,-14.912698 5.24292,-8.113849 18.4148,-4.046454 18.71081,5.777779 0.23346,7.748457 -6.52479,12.064141 -14.30507,9.134919 z m 16.38458,-9.904795 c -0.0812,-1.2937 -0.90856,-3.740721 -1.8386,-5.437821 -2.35513,-4.297577 -1.68706,-8.485884 1.42,-8.902279 1.34138,-0.179767 2.43888,0.150996 2.43888,0.735028 0,0.584033 -0.72755,0.798428 -1.61678,0.476435 -2.59127,-0.938303 -3.16586,2.449237 -1.13595,6.697003 1.02286,2.140419 1.63932,4.992404 1.36991,6.337744 l -0.48985,2.446069 z M 141.96604,64.956444 c 2.66388,-1.014295 1.51024,-5.331317 -1.86478,-6.97821 -1.77084,-0.864113 -3.78815,-2.601974 -4.4829,-3.861916 l -1.2632,-2.290802 2.58599,2.148973 c 1.42231,1.181936 3.42508,2.427991 4.45062,2.769012 3.40859,1.133453 3.95204,9.003997 0.60829,8.8096 -1.0879,-0.06325 -1.09527,-0.192575 -0.034,-0.596657 z m -3.34911,-12.612778 c -3.56862,-2.956652 -3.96755,-3.798639 -3.96755,-8.374086 0,-4.258599 0.51593,-5.573766 3.16847,-8.076759 8.34807,-7.877425 22.73506,2.260512 18.08965,12.747058 -1.88885,4.263878 -4.08889,5.822224 -9.11843,6.458793 -3.61013,0.456922 -4.76551,0.06741 -8.17214,-2.755006 z m -5.92413,-5.632349 c 0.0221,-1.687685 0.26502,-2.254273 0.53985,-1.259083 0.27482,0.99519 0.25675,2.376023 -0.0401,3.068519 -0.29698,0.692496 -0.52183,-0.12175 -0.49974,-1.809436 z m 0.32547,-8.524507 c 0.76217,-4.909294 4.30457,-9.041035 8.96602,-10.457682 2.22561,-0.676381 4.66745,-1.695179 5.42632,-2.263997 1.03969,-0.779319 1.20472,-0.603802 0.66957,0.712137 -0.48047,1.181499 0.47565,2.917111 2.95606,5.365988 l 3.66622,3.619637 -4.21608,-2.664215 c -7.71286,-4.873901 -14.12261,-2.772031 -16.82893,5.518502 l -1.16862,3.579939 z"
     id="path1" />
</svg>
