<?xml version="1.0" encoding="UTF-8" standalone="no"?>
<!-- Created with Inkscape (http://www.inkscape.org/) -->

<svg
   version="1.1"
   id="svg1"
   width="200"
   height="200"
   viewBox="0 0 200 200"
   xml:space="preserve"
   xmlns="http://www.w3.org/2000/svg"
   xmlns:svg="http://www.w3.org/2000/svg"><defs
     id="defs1" /><g
     id="g3"><path
       style="fill:#000000;stroke-width:0.701973"
       d="m 63.538092,124.04161 c 8.046955,-1.65236 15.523916,-5.82733 22.970231,-12.82605 6.737756,-6.33277 9.076934,-9.77729 10.979052,-16.167063 l 0.91344,-3.06852 0.0474,2.386627 c 0.02607,1.312647 -0.235807,3.53732 -0.58192,4.943726 -0.346107,1.4064 -0.538007,2.5571 -0.426433,2.5571 0.111573,0 1.505873,-2.071253 3.098448,-4.602779 5.58917,-8.884467 9.11408,-19.40294 8.69938,-25.959315 l -0.22944,-3.627315 -2.81474,3.968261 c -1.54812,2.182545 -2.62984,3.467323 -2.40382,2.855061 4.85565,-13.153855 5.10968,-21.051299 0.95272,-29.619386 -2.94587,-6.071849 -12.526823,-11.419099 -20.42963,-11.402026 -6.707496,0.01449 -13.533027,5.196382 -17.64508,13.396011 -2.676377,5.336819 -3.220219,8.119649 -2.08999,10.69443 1.294444,2.94888 2.138002,3.122442 1.659754,0.341495 -1.101024,-6.402304 5.136129,-10.371398 9.631712,-6.129266 1.366971,1.289904 1.728201,2.170466 1.398652,3.409466 -0.399186,1.500816 -0.219142,1.670418 1.773258,1.670418 2.473552,0 5.71979,-1.380734 7.198139,-3.06161 0.534935,-0.60822 1.383562,-2.546277 1.885836,-4.306793 0.907573,-3.18112 0.913084,-3.160829 0.889968,3.277044 -0.01279,3.562891 -0.283614,7.245114 -0.601828,8.182717 -0.567728,1.672793 -0.579928,1.666405 -0.651171,-0.340947 -0.06478,-1.825113 -0.301243,-1.589623 -2.193178,2.184092 -2.884454,5.753425 -4.930718,8.221743 -8.419957,10.156627 -3.040045,1.685794 -4.267807,2.052643 -3.634728,1.086054 0.198858,-0.303622 -1.581684,-0.419402 -3.956761,-0.25729 -4.730609,0.32289 -9.699122,-1.032946 -11.795503,-3.218824 -1.154008,-1.203274 -1.088594,-1.223425 1.695314,-0.522249 1.5926,0.401123 3.101316,0.535231 3.352703,0.298018 0.251386,-0.237215 -0.350346,-1.448721 -1.337184,-2.692238 -2.001038,-2.521512 -3.67106,-5.502134 -4.49998,-8.031476 -0.536251,-1.636295 -0.505007,-1.629487 1.223366,0.266585 l 1.773671,1.945765 0.105944,-3.799661 C 60.304464,49.824271 64.906063,41.40255 72.969519,34.430414 85.059114,23.977042 104.64599,23.63672 114.7893,33.703795 c 1.96251,1.947761 2.36508,2.613648 1.25389,2.074054 -1.34574,-0.653489 -1.71456,-0.60315 -2.07502,0.283202 -0.98602,2.424672 4.21608,11.25493 6.63053,11.25493 0.54109,0 1.2773,-0.494892 1.63603,-1.099759 0.8602,-1.450442 2.31012,3.790937 2.31012,8.350976 0,2.883267 -0.10669,3.100149 -0.97433,1.980493 -1.33917,-1.728188 -2.31498,-0.937778 -3.27258,2.650838 -1.56071,5.84868 -0.68518,9.938031 2.12772,9.938031 0.82118,0 1.72479,-0.661224 2.09667,-1.53426 1.14645,-2.691414 0.79259,-0.304618 -0.71687,4.835371 -1.38723,4.72378 -6.0381,14.428107 -6.91476,14.428107 -0.22531,0 -0.20673,-0.871814 0.0413,-1.93736 0.66148,-2.841947 -0.88014,-10.848002 -2.84389,-14.769019 l -1.70756,-3.409465 -0.0602,4.318693 c -0.11513,8.255151 -4.17088,19.909397 -9.77182,28.079437 -1.855,2.705866 -3.205189,5.077856 -3.000422,5.271066 0.501542,0.47328 6.998872,-3.50286 8.883982,-5.436686 0.82959,-0.851027 2.39316,-2.774727 3.47457,-4.274893 2.69163,-3.73388 1.72215,-0.580554 -1.3407,4.360733 -3.46877,5.596166 -8.56985,10.498886 -15.230328,14.638106 -12.405113,7.70927 -22.80101,11.4019 -31.788199,11.29119 l -4.400864,-0.0542 z m 35.04901,-33.482239 c 0.03467,-0.794374 0.205906,-0.955947 0.436586,-0.41198 0.208747,0.49224 0.18308,1.080373 -0.05707,1.30696 -0.240127,0.226586 -0.41092,-0.17616 -0.379547,-0.89498 z m 31.883568,-19.779874 -1.66183,-2.40908 1.58946,0.802698 c 0.92778,0.468542 2.97331,0.6484 4.91369,0.432048 l 3.32421,-0.370649 -3.02696,1.016775 c -1.66483,0.559227 -3.12816,1.448891 -3.25186,1.977032 -0.13618,0.581484 -0.88038,0.01 -1.88671,-1.448824 z m 9.83319,-3.070508 c 0.51976,-0.634405 1.22348,-2.030277 1.56381,-3.101938 0.51332,-1.616351 0.62938,-1.693437 0.68091,-0.452241 0.0342,0.822929 -0.66956,2.218801 -1.56382,3.101938 -0.89426,0.883137 -1.20066,1.086646 -0.6809,0.452241 z m -9.24045,-0.01533 c -4.52529,-1.70374 -5.69719,-5.670425 -2.93716,-9.941799 3.49528,-5.409232 12.27653,-2.697636 12.47387,3.851853 0.15564,5.165638 -4.34986,8.04276 -9.53671,6.089946 z m 10.92305,-6.603197 c -0.0541,-0.862467 -0.6057,-2.493814 -1.22573,-3.625214 -1.57009,-2.865051 -1.12471,-5.657256 0.94667,-5.934852 0.89425,-0.119845 1.62592,0.100664 1.62592,0.490018 0,0.389356 -0.48504,0.532286 -1.07786,0.317624 -1.72751,-0.625536 -2.11057,1.632824 -0.7573,4.464668 0.68191,1.426946 1.09288,3.328269 0.91328,4.225163 l -0.32657,1.630712 z m -14.0091,-9.452831 c 1.77592,-0.676197 1.00682,-3.554211 -1.24319,-4.65214 -1.18056,-0.576075 -2.52543,-1.734649 -2.9886,-2.57461 l -0.84213,-1.527202 1.72399,1.432649 c 0.94821,0.787957 2.28339,1.618661 2.96708,1.846008 2.27239,0.755635 2.63469,6.002664 0.40553,5.873066 -0.72527,-0.04217 -0.73018,-0.128383 -0.0227,-0.397771 z m -2.23274,-8.408518 c -2.37908,-1.971102 -2.64504,-2.532426 -2.64504,-5.582724 0,-2.839066 0.34396,-3.715844 2.11232,-5.384506 5.56538,-5.251616 15.1567,1.507008 12.05976,8.498038 -1.25923,2.842586 -2.72592,3.881483 -6.07895,4.305862 -2.40675,0.304615 -3.17701,0.04494 -5.44809,-1.83667 z m -3.94942,-3.754899 c 0.0147,-1.125124 0.17668,-1.502849 0.3599,-0.839389 0.18321,0.66346 0.17116,1.584015 -0.0267,2.045679 -0.19798,0.461664 -0.34788,-0.08117 -0.33316,-1.20629 z m 0.21698,-5.683005 c 0.50811,-3.272863 2.86971,-6.027356 5.97734,-6.971788 1.48374,-0.45092 3.11164,-1.130119 3.61755,-1.509331 0.69313,-0.519546 0.80315,-0.402535 0.44638,0.474758 -0.32031,0.787666 0.3171,1.944741 1.97071,3.577325 l 2.44414,2.413091 -2.81072,-1.776143 c -5.1419,-3.249267 -9.41507,-1.84802 -11.21928,3.679001 l -0.77908,2.386626 z"
       id="path1" /><path
       style="fill:#000000"
       d="M 40.666438,158.47845 C 40.144587,157.90181 40,156.91066 40,153.90999 c 0,-5.21272 -0.0627,-5.16493 6.776674,-5.16493 h 5.303863 v -4.02685 -4.02684 H 48.255034 44.42953 v 2.18183 c 0,2.74867 -0.262321,3.42232 -1.51867,3.89998 -0.749423,0.28493 -1.259316,0.21665 -1.998371,-0.2676 -0.945506,-0.61951 -0.985608,-0.80926 -0.851686,-4.02994 0.132909,-3.19631 0.211954,-3.45128 1.455904,-4.69614 l 1.315365,-1.31632 4.795755,-0.13372 c 7.898572,-0.22022 8.88224,0.6865 8.88224,8.18741 0,7.25447 -0.971334,8.25503 -8.013877,8.25503 h -4.06666 v 2.55504 c 0,1.96387 -0.170384,2.70923 -0.736405,3.22148 -0.966098,0.8743 -2.197901,0.84583 -3.026687,-0.07 z m 17.687831,-6.87911 c -0.607339,-0.6711 -0.679925,-1.5227 -0.565767,-6.63769 l 0.130961,-5.86781 1.315406,-1.31533 c 1.309694,-1.30962 1.335218,-1.31591 5.877704,-1.44913 4.980699,-0.14608 5.894138,0.18669 5.894138,2.14722 0,1.8068 -0.932498,2.21477 -5.06232,2.21477 h -3.79674 v 5.17248 c 0,4.49962 -0.0958,5.25919 -0.736406,5.83893 -0.977418,0.88455 -2.200305,0.84317 -3.056976,-0.10344 z m 16.88063,0.38571 c -0.442953,-0.18322 -1.258389,-0.82056 -1.81208,-1.41632 -0.965822,-1.03919 -1.006712,-1.29418 -1.006712,-6.2779 v -5.19471 l 1.315365,-1.31647 1.315366,-1.31647 4.795754,-0.13372 c 7.846492,-0.21877 8.88224,0.71248 8.88224,7.98607 0,7.11361 -0.991661,8.07096 -8.315891,8.02816 -2.40277,-0.014 -4.731089,-0.17543 -5.174042,-0.35864 z m 9.060403,-7.66952 v -3.62416 h -3.825503 -3.825504 v 3.62416 3.62416 h 3.825504 3.825503 z m 6.304022,7.31728 c -0.874306,-0.9661 -0.845831,-2.1979 0.06997,-3.02668 0.606773,-0.54913 1.670065,-0.66644 6.040268,-0.66644 h 5.303858 v -3.62416 -3.62416 h -2.353691 c -2.539142,0 -3.686573,-0.71112 -3.686573,-2.28474 0,-1.66275 1.192268,-2.14479 5.304864,-2.14479 5.23547,0 5.16493,-0.0958 5.16493,7.01655 0,8.54115 -0.57817,9.09083 -9.5622,9.09083 -4.928301,0 -5.696488,-0.0901 -6.281424,-0.73641 z m 20.071816,0.35224 c -0.44295,-0.18322 -1.25839,-0.82056 -1.81208,-1.41632 -0.96582,-1.03919 -1.00671,-1.29418 -1.00671,-6.2779 v -5.19471 l 1.31536,-1.31647 1.31537,-1.31647 4.79575,-0.13372 c 7.28965,-0.20324 8.88224,0.92176 8.88224,6.27438 0,3.85532 -0.35016,4.12779 -5.30486,4.12779 -3.20103,0 -3.9418,-0.12126 -4.4985,-0.7364 -1.73896,-1.92153 -0.25664,-3.69313 3.09011,-3.69313 2.01527,0 2.28372,-0.0947 2.28372,-0.80536 0,-0.74886 -0.26845,-0.80537 -3.8255,-0.80537 h -3.8255 v 3.62416 3.62416 h 5.40748 c 5.85594,0 6.67305,0.27119 6.67305,2.21476 0,1.9692 -0.78918,2.2169 -6.97507,2.18924 -3.14022,-0.014 -6.07191,-0.17543 -6.51486,-0.35864 z m 17.71812,0 c -0.44295,-0.18322 -1.25839,-0.82056 -1.81208,-1.41632 -0.96582,-1.03919 -1.00671,-1.29418 -1.00671,-6.2779 v -5.19471 l 1.31536,-1.31647 1.31535,-1.31647 6.17869,-0.1282 c 6.72429,-0.13952 7.49932,0.0818 7.49932,2.14162 0,1.94357 -0.8171,2.21477 -6.67305,2.21477 h -5.40748 v 3.62416 3.62416 h 5.40748 c 5.85595,0 6.67305,0.27119 6.67305,2.21476 0,1.9692 -0.78918,2.2169 -6.97507,2.18924 -3.14022,-0.014 -6.07191,-0.17543 -6.51486,-0.35864 z m 17.29476,-0.24058 c -2.33761,-1.15368 -2.59677,-2.14623 -2.59677,-9.94544 0,-6.29247 0.0766,-7.09244 0.7364,-7.68955 1.41111,-1.27703 3.69313,-0.42694 3.69313,1.37575 0,0.67844 0.29751,0.77661 2.35369,0.77661 2.53915,0 3.68658,0.71111 3.68658,2.28473 0,1.42241 -1.26524,2.1448 -3.75654,2.1448 h -2.28373 v 3.62416 3.62416 h 5.40748 c 5.85595,0 6.67306,0.27119 6.67306,2.21476 0,1.96504 -0.79215,2.21553 -6.97508,2.2056 -4.25769,-0.007 -6.02193,-0.16337 -6.93822,-0.61558 z m -43.42399,-17.21182 c -0.4997,-0.36539 -0.67313,-0.93484 -0.58032,-1.90548 0.10516,-1.09977 0.36565,-1.46589 1.26717,-1.78101 2.50281,-0.87484 4.70036,2.11038 2.62409,3.56466 -1.11103,0.7782 -2.3509,0.82382 -3.31094,0.12183 z"
       id="path2" /><path
       style="fill:#000000"
       d="m 92.953019,178.96013 c -0.442954,-0.18321 -1.25839,-0.82015 -1.812081,-1.41542 -0.902407,-0.97016 -1.006711,-1.42126 -1.006711,-4.35386 0,-3.11426 0.05102,-3.30038 1.06098,-3.87068 0.953865,-0.53861 1.167303,-0.52943 2.114094,0.0909 0.941266,0.61674 1.053114,0.94565 1.053114,3.09685 v 2.40683 h 3.825503 3.825502 v -3.82551 -3.8255 h -5.373829 c -6.758443,0 -6.706707,0.0396 -6.706707,-5.13717 0,-3.98883 0.422792,-4.92994 2.214765,-4.92994 1.558445,0 2.214766,1.02283 2.214766,3.45158 v 2.186 h 4.066659 c 7.083186,0 8.013876,0.96085 8.013876,8.27358 0,7.3197 -0.94626,8.25402 -8.315889,8.21096 -2.402771,-0.014 -4.731089,-0.17543 -5.174042,-0.35865 z m 15.364421,-0.75491 c -0.5164,-0.57062 -0.66643,-1.5538 -0.66643,-4.36712 0,-4.80765 0.16772,-4.96359 5.33851,-4.96359 4.18491,0 5.13128,0.40227 5.13128,2.18112 0,1.52381 -1.21061,2.24841 -3.75654,2.24841 -1.76152,0 -2.28372,0.13812 -2.28372,0.60403 0,0.49452 0.69351,0.60402 3.8255,0.60402 h 3.8255 v -3.62416 -3.62416 h -5.37383 c -4.69467,0 -5.45805,-0.0931 -6.04027,-0.73641 -0.8743,-0.96609 -0.84583,-2.1979 0.07,-3.02668 0.61019,-0.55221 1.68682,-0.66644 6.28143,-0.66644 8.65993,0 9.49223,0.70617 9.49223,8.05369 0,7.36042 -0.82312,8.05369 -9.5622,8.05369 -4.9283,0 -5.69649,-0.0901 -6.28143,-0.7364 z m 17.71812,0 c -0.8743,-0.9661 -0.84583,-2.1979 0.07,-3.02669 0.60678,-0.54912 1.67007,-0.66644 6.04027,-0.66644 4.30263,0 5.30386,-0.10748 5.30386,-0.56937 0,-0.4498 -0.97114,-0.5978 -4.62419,-0.7047 -4.61292,-0.13499 -4.62739,-0.13853 -5.93959,-1.45179 -1.19111,-1.19207 -1.31541,-1.54333 -1.31541,-3.71709 0,-2.17374 0.12431,-2.52504 1.31535,-3.71709 l 1.31536,-1.31647 6.17869,-0.1282 c 6.72429,-0.13951 7.49932,0.0818 7.49932,2.14162 0,1.94357 -0.81711,2.21477 -6.67305,2.21477 -5.13903,0 -5.40748,0.04 -5.40748,0.80537 0,0.7522 0.26845,0.80537 4.06666,0.80537 4.62539,0 6.47618,0.61059 7.42759,2.45041 1.3256,2.56344 0.39831,5.83283 -1.97361,6.95838 -1.07793,0.5115 -2.63956,0.65832 -7.00231,0.65832 -4.9283,0 -5.69649,-0.0901 -6.28143,-0.7364 z m 17.71813,0 c -0.87431,-0.9661 -0.84583,-2.1979 0.07,-3.02669 0.60678,-0.54912 1.67007,-0.66644 6.04027,-0.66644 4.30263,0 5.30387,-0.10748 5.30387,-0.56937 0,-0.4498 -0.97114,-0.5978 -4.6242,-0.7047 -4.61292,-0.13499 -4.62739,-0.13853 -5.93959,-1.45179 -1.1911,-1.19207 -1.31541,-1.54333 -1.31541,-3.71709 0,-2.17374 0.12432,-2.52504 1.31536,-3.71709 l 1.31535,-1.31647 6.17869,-0.1282 c 6.72429,-0.13951 7.49933,0.0818 7.49933,2.14162 0,1.94357 -0.81711,2.21477 -6.67306,2.21477 -5.13903,0 -5.40748,0.04 -5.40748,0.80537 0,0.7522 0.26845,0.80537 4.06666,0.80537 4.62539,0 6.47618,0.61059 7.42759,2.45041 1.32561,2.56344 0.39831,5.83283 -1.97361,6.95838 -1.07793,0.5115 -2.63956,0.65832 -7.00231,0.65832 -4.9283,0 -5.69649,-0.0901 -6.28142,-0.7364 z"
       id="path3" /></g></svg>
