<?xml version="1.0" encoding="UTF-8" standalone="no"?>
<!-- Created with Inkscape (http://www.inkscape.org/) -->

<svg
   width="200mm"
   height="200mm"
   viewBox="0 0 200 200"
   version="1.1"
   id="svg1"
   xml:space="preserve"
   xmlns="http://www.w3.org/2000/svg"
   xmlns:svg="http://www.w3.org/2000/svg"><defs
     id="defs1" /><path
     style="fill:#000000;stroke-width:0.599061"
     d="m 88.501814,126.96892 -7.918247,-8.03107 -0.07926,-13.19398 -0.07926,-13.193934 -4.410885,5.295649 -4.410883,5.295625 H 63.656457 55.709623 L 50.354796,97.794941 44.999969,92.448644 V 85.39203 78.335409 L 71.668032,51.667704 98.336091,25 h 1.664259 1.66428 l 26.6677,26.668058 26.6677,26.668053 v 7.056265 7.056268 l -5.35483,5.346297 -5.35482,5.346269 h -7.04706 -7.04705 l -5.3503,-5.348513 -5.35028,-5.348555 v 13.233378 13.23342 l -8.04337,8.04452 L 103.40894,135 h -3.494428 -3.49445 z m 15.974166,-12.37425 2.6566,-2.65315 v -8.98177 -8.981742 l -2.71704,-2.630194 -2.71701,-2.630212 H 100 98.301481 l -2.71703,2.630212 -2.717016,2.630194 v 8.978292 8.97833 l 2.653156,2.65659 2.65315,2.6566 h 1.82281 1.822819 z m -8.894999,-26.590317 2.56237,-2.615277 h 1.85311 1.853099 l 2.57419,2.615277 c 1.4158,1.438404 2.60447,2.615269 2.64151,2.615269 0.0371,0 0.0673,-4.795885 0.0673,-10.657525 V 69.304573 l -2.65316,-2.656603 -2.65316,-2.656595 h -1.82281 -1.822819 l -2.6566,2.653151 -2.656597,2.653151 v 10.66097 c 0,5.863534 0.03401,10.660975 0.07558,10.660975 0.04157,0 1.228654,-1.176865 2.637957,-2.615269 z M 75.194516,78.256505 84.06954,69.380422 h 2.696117 2.69612 l 4.435916,-4.438037 4.435918,-4.438039 H 100 h 1.66639 l 4.43592,4.438039 4.43591,4.438037 h 2.69613 2.69611 l 8.87502,8.876083 8.87503,8.87609 h 2.65543 2.65544 V 83.526936 79.921287 L 120.40733,61.336723 101.82328,42.75217 h -1.82277 -1.822769 L 79.593186,61.336225 61.00863,79.920272 v 3.606157 3.606166 h 2.65543 2.655432 z"
     id="path1" /><path
     style="fill:#000000"
     d="m 74.613445,174.5042 c -0.428539,-0.42853 -0.554621,-1.3388 -0.554621,-4.00412 0,-4.67301 -0.07111,-4.61773 5.939555,-4.61773 h 4.64868 v -3.52941 -3.52941 h -3.336816 -3.336815 l -0.104361,2.37033 c -0.09432,2.1422 -0.193858,2.42041 -1.034279,2.89077 -0.833396,0.46642 -1.025726,0.45766 -1.852942,-0.0844 -0.867952,-0.5687 -0.923022,-0.77307 -0.923022,-3.42536 0,-2.71883 0.04355,-2.86814 1.207291,-4.13893 l 1.207292,-1.31834 4.439769,-0.11702 c 3.985193,-0.10504 4.560042,-0.0427 5.614459,0.60898 1.718466,1.06207 2.003362,2.01757 1.98927,6.6717 -0.01365,4.50896 -0.262226,5.3293 -1.952467,6.44351 -0.860838,0.56747 -1.673552,0.68269 -4.829144,0.68462 l -3.794118,0.002 v 2.23941 c 0,1.72128 -0.149336,2.37457 -0.645437,2.82353 -0.813422,0.73614 -1.963009,0.74878 -2.682294,0.0295 z m 70.588235,-0.35294 c -0.30504,-0.30504 -0.55462,-0.92899 -0.55462,-1.38655 0,-1.70348 0.71617,-1.94118 5.84874,-1.94118 h 4.73949 v -0.85198 c 0,-0.8448 -0.0344,-0.85298 -4.08676,-0.97059 l -4.08676,-0.1186 -1.20736,-1.31835 -1.20735,-1.31835 v -4.09778 c 0,-6.46901 0.74776,-7.20802 7.28975,-7.20438 3.53791,0.002 4.34,0.10725 5.21586,0.68462 1.52739,1.00686 1.93855,2.0275 1.95247,4.84667 0.0136,2.76438 -0.44434,3.64286 -1.89918,3.64286 -1.33558,0 -1.97067,-1.06107 -1.97067,-3.2925 v -2.00162 h -3.35294 -3.35294 V 162 v 3.17647 h 4.71001 c 5.97796,0 5.87823,-0.0819 5.87823,4.82603 0,4.88402 0.28135,4.70339 -7.32611,4.70339 -5.01599,0 -6.1289,-0.0937 -6.58986,-0.55463 z M 25.554622,168.5042 c -0.711257,-0.71125 -0.711257,-2.06185 0,-2.77311 0.449133,-0.44913 1.456073,-0.55462 5.294117,-0.55462 3.849393,0 4.739496,-0.0937 4.739496,-0.49904 0,-0.39423 -0.851174,-0.52395 -4.052967,-0.61764 -4.043092,-0.11832 -4.055777,-0.12142 -5.205883,-1.27246 -1.043965,-1.04481 -1.152914,-1.35268 -1.152914,-3.25792 0,-1.90521 0.108959,-2.21312 1.15287,-3.25792 l 1.152871,-1.15384 5.41544,-0.11236 c 5.893645,-0.12229 6.572936,0.0717 6.572936,1.87706 0,1.70349 -0.716172,1.94118 -5.848739,1.94118 -4.504202,0 -4.739496,0.035 -4.739496,0.70588 0,0.66128 0.235294,0.70589 3.723409,0.70589 4.191661,0 5.458284,0.42146 6.32944,2.10609 1.135316,2.19546 0.378525,5.17406 -1.570708,6.18205 -1.526401,0.78933 -11.016762,0.77387 -11.809872,-0.0192 z m 15.558903,-0.0908 c -0.45261,-0.50013 -0.584113,-1.36186 -0.584113,-3.82765 0,-4.21376 0.147007,-4.35044 4.679051,-4.35044 3.684101,0 4.497419,0.35104 4.497419,1.94117 0,1.40252 -0.888442,1.94118 -3.20168,1.94118 -1.62465,0 -2.092437,0.11835 -2.092437,0.52941 0,0.43344 0.607843,0.52941 3.352941,0.52941 h 3.352941 V 162 158.82353 h -4.739496 c -5.132567,0 -5.848739,-0.23769 -5.848739,-1.94118 0,-1.73129 0.681515,-1.94136 6.289916,-1.93885 5.603186,0.003 6.659687,0.30182 7.703192,2.1823 0.617645,1.11304 0.617645,8.63536 0,9.74841 -1.042244,1.8782 -2.102688,2.17978 -7.673701,2.18229 -4.543945,0.002 -5.220038,-0.0738 -5.735294,-0.64311 z m 15.49992,0.0908 c -0.453364,-0.45336 -0.554621,-1.49193 -0.554621,-5.68858 v -5.13396 l 1.370242,-1.37024 1.370242,-1.37024 h 5.529638 c 8.427754,0 8.671054,0.22544 8.671054,8.03464 0,5.64715 -0.130068,6.08301 -1.815281,6.08301 -1.707391,0 -2.067072,-1.02699 -2.067072,-5.90207 v -4.33323 h -1.235294 -1.235294 v 4.33323 c 0,4.87508 -0.359681,5.90207 -2.067072,5.90207 -1.66127,0 -1.815281,-0.47013 -1.815281,-5.54118 v -4.69412 h -1.411765 -1.411765 v 4.53353 c 0,3.94379 -0.08396,4.60952 -0.645437,5.11765 -0.813422,0.73614 -1.963009,0.74878 -2.682294,0.0295 z m 33.558904,-0.0908 c -0.508667,-0.56207 -0.584114,-1.71748 -0.584114,-8.9453 0,-7.59254 0.05501,-8.34964 0.645438,-8.88398 0.87549,-0.7923 2.379414,-0.73573 3.236915,0.12177 0.664962,0.66496 0.705883,1.17647 0.705883,8.82353 0,7.64706 -0.04092,8.15857 -0.705883,8.82353 -0.881879,0.88188 -2.527557,0.91204 -3.298239,0.0605 z m 6.080246,-0.72481 -1.370242,-1.37024 v -4.13412 c 0,-6.49266 0.747902,-7.24304 7.219037,-7.24304 6.10222,0 7.25155,0.88358 7.25155,5.57483 0,3.3607 -0.31104,3.60164 -4.64956,3.60164 -2.8056,0 -3.45487,-0.10629 -3.9428,-0.64544 -1.524146,-1.68417 -0.22493,-3.23691 2.70839,-3.23691 1.76632,0 2.00162,-0.083 2.00162,-0.70589 0,-0.65634 -0.2353,-0.70588 -3.35294,-0.70588 H 98.764706 V 162 v 3.17647 h 4.739494 c 5.13257,0 5.84874,0.2377 5.84874,1.94118 0,1.73807 -0.6717,1.94118 -6.41967,1.94118 h -5.310433 z m 28.155045,0.72481 c -0.50866,-0.56207 -0.58411,-1.71748 -0.58411,-8.9453 0,-7.59254 0.055,-8.34964 0.64544,-8.88398 0.87549,-0.7923 2.37941,-0.73573 3.23691,0.12177 0.66496,0.66496 0.70588,1.17647 0.70588,8.82353 0,7.64706 -0.0409,8.15857 -0.70588,8.82353 -0.88188,0.88188 -2.52756,0.91204 -3.29824,0.0605 z m 6.08025,-0.72481 -1.37024,-1.37024 V 162 157.68166 l 1.37024,-1.37024 1.37024,-1.37024 4.36505,0.002 c 3.72002,0.002 4.518,0.10315 5.40008,0.68462 1.68975,1.11389 1.93996,1.93574 1.93996,6.37188 0,4.43615 -0.25021,5.25799 -1.93996,6.37188 -0.88208,0.58147 -1.68006,0.68264 -5.40008,0.68462 l -4.36505,0.002 z M 139.70588,162 v -3.17647 H 136.35294 133 V 162 v 3.17647 h 3.35294 3.35294 z m 21.84083,5.68858 -1.37024,-1.37024 V 162 157.68166 l 1.37024,-1.37024 1.37025,-1.37024 4.36505,0.002 c 3.72002,0.002 4.518,0.10315 5.40008,0.68462 1.68974,1.11389 1.93996,1.93574 1.93996,6.37188 0,4.43615 -0.25022,5.25799 -1.93996,6.37188 -0.88208,0.58147 -1.68006,0.68264 -5.40008,0.68462 l -4.36505,0.002 z M 170.76471,162 v -3.17647 h -3.35295 -3.35294 V 162 v 3.17647 h 3.35294 3.35295 z m -59.67444,0.49643 c -0.25671,-0.30932 -0.46674,-1.08859 -0.46674,-1.73172 0,-2.15581 0.36068,-2.29412 5.98271,-2.29412 5.65688,0 6.15847,0.18685 6.15847,2.29412 0,2.10727 -0.50159,2.29412 -6.15847,2.29412 -4.18923,0 -5.12872,-0.0958 -5.51597,-0.5624 z"
     id="path2" /></svg>
