<?xml version="1.0" encoding="UTF-8" standalone="no"?>
<!-- Created with Inkscape (http://www.inkscape.org/) -->

<svg
   width="200mm"
   height="200mm"
   viewBox="0 0 200 200"
   version="1.1"
   id="svg1"
   xml:space="preserve"
   inkscape:export-filename="{{ project_name.lower() }}-no-text.png"
   inkscape:export-xdpi="96"
   inkscape:export-ydpi="96"
   xmlns:inkscape="http://www.inkscape.org/namespaces/inkscape"
   xmlns:sodipodi="http://sodipodi.sourceforge.net/DTD/sodipodi-0.dtd"
   xmlns="http://www.w3.org/2000/svg"
   xmlns:svg="http://www.w3.org/2000/svg"><sodipodi:namedview
     id="namedview1"
     pagecolor="#ffffff"
     bordercolor="#000000"
     borderopacity="0.25"
     inkscape:showpageshadow="2"
     inkscape:pageopacity="0.0"
     inkscape:pagecheckerboard="0"
     inkscape:deskcolor="#d1d1d1"
     inkscape:document-units="mm" /><defs
     id="defs1" /><path
     style="fill:#ffffff;stroke-width:0.707981"
     d="m 86.411238,155.50872 -9.357923,-9.49126 -0.09366,-15.59288 -0.09366,-15.59288 -5.212861,6.2585 -5.21286,6.2585 H 57.048567 47.65686 l -6.328429,-6.31835 -6.328429,-6.31836 v -8.33963 -8.339639 L 66.516779,66.516359 98.033558,34.999998 h 1.966852 1.96687 L 133.48364,66.516777 165,98.033551 v 8.339219 8.33922 l -6.32843,6.31836 -6.32842,6.31835 h -8.32834 -8.32833 l -6.32307,-6.32101 -6.32306,-6.32102 v 15.6395 15.63949 l -9.5058,9.50717 -9.5058,9.50717 h -4.129789 -4.129799 z m 18.878542,-14.6241 3.13962,-3.13553 v -10.61484 -10.61483 l -3.21103,-3.10841 -3.21102,-3.10843 h -2.007354 -2.007344 l -3.211025,3.10843 -3.211022,3.10841 v 10.61075 10.61077 l 3.135541,3.1396 3.135543,3.13962 h 2.154237 2.154234 z m -10.512261,-31.42497 3.028261,-3.09078 h 2.190032 2.190028 l 3.04222,3.09078 c 1.67322,1.69993 3.07801,3.09077 3.12178,3.09077 0.0438,0 0.0796,-5.66786 0.0796,-12.595249 v -12.59525 l -3.13555,-3.13962 -3.13554,-3.13961 h -2.15424 -2.154235 l -3.139617,3.13554 -3.139616,3.13554 v 12.599321 c 0,6.929628 0.0402,12.599328 0.08933,12.599328 0.04912,0 1.452045,-1.39084 3.117587,-3.09077 z M 70.684439,97.939471 81.173098,87.449561 h 3.18632 3.18632 l 5.242446,-5.24495 5.242451,-5.244953 h 1.969362 1.969373 l 5.24244,5.244953 5.24245,5.24495 h 3.18632 3.18632 l 10.48866,10.48991 10.48866,10.489919 h 3.13824 3.13823 v -4.26123 -4.261219 L 124.11774,77.943376 102.15478,55.979824 H 100.0006 97.846418 L 75.882863,77.942787 53.91931,99.905741 v 4.261819 4.26183 h 3.138235 3.138236 z"
     id="path1" /></svg>
